<?xml version="1.0" encoding="UTF-8"?>
<svg id="Layer_1" data-name="Layer 1" xmlns="http://www.w3.org/2000/svg" viewBox="0 0 595.38 416.38">
  <defs>
    <style>
      .cls-1, .cls-2 {
        fill: #fff;
      }

      .cls-2 {
        font-family: Poppins-Light, Poppins;
        font-size: 27.28px;
        font-weight: 300;
      }
    </style>
  </defs>
  <g>
    <path class="cls-1" d="m148.87,126.07c-1.17,0-2.13.93-2.13,2.09s.95,2.09,2.13,2.09,2.13-.93,2.13-2.09-.95-2.09-2.13-2.09Z"/>
    <path class="cls-1" d="m139.41,128.74c-4.93,0-8.93,3.93-8.93,8.76s4.01,8.76,8.93,8.76,8.93-3.93,8.93-8.76-4.01-8.76-8.93-8.76Zm0,14.38c-3.16,0-5.72-2.52-5.72-5.61s2.57-5.61,5.72-5.61,5.72,2.52,5.72,5.61-2.57,5.61-5.72,5.61Z"/>
    <path class="cls-1" d="m146.5,155.3h-14.48c-6.01,0-10.9-4.79-10.9-10.69v-14.21c0-5.89,4.89-10.69,10.9-10.69h14.48c6.01,0,10.9,4.79,10.9,10.69v14.21c0,5.89-4.89,10.69-10.9,10.69Zm-14.48-32.24c-4.13,0-7.48,3.29-7.48,7.34v14.21c0,4.05,3.36,7.34,7.48,7.34h14.48c4.13,0,7.48-3.29,7.48-7.34v-14.21c0-4.05-3.36-7.34-7.48-7.34h-14.48Z"/>
  </g>
  <path class="cls-1" d="m112.83,139.26l1.01-6.44h-6.3v-4.18c0-1.76.88-3.48,3.7-3.48h2.86v-5.48s-2.6-.44-5.08-.44c-5.19,0-8.58,3.08-8.58,8.67v4.91h-5.77v6.44h5.77v15.57h7.1v-15.57h5.29Z"/>
  <text class="cls-2" transform="translate(161.13 149.79) scale(1.02 1)"><tspan x="0" y="0">PAINTINGWINGBITSINDRI</tspan></text>
  <path class="cls-1" d="m86.72,120.34h-31.93c-1.02,0-1.86.81-1.86,1.82v31.32c0,1.01.83,1.82,1.86,1.82h31.93c1.02,0,1.86-.81,1.86-1.82v-31.32c0-1.01-.83-1.82-1.86-1.82Zm-22.93,26.25h-4.54v-14.4h4.54v14.4Zm-2.29-16.29c-1.48,0-2.69-1.19-2.69-2.66s1.2-2.66,2.69-2.66,2.69,1.19,2.69,2.66-1.2,2.66-2.69,2.66Zm19.32,16.29h-4.52v-7.56c0-2.07-.8-3.23-2.47-3.23-1.82,0-2.77,1.21-2.77,3.23v7.56h-4.36v-14.4h4.36v1.94s1.31-2.38,4.42-2.38,5.34,1.86,5.34,5.72v9.12Z"/>
</svg>