<?xml version="1.0" encoding="UTF-8"?>
<svg id="Layer_1" data-name="Layer 1" xmlns="http://www.w3.org/2000/svg" viewBox="0 0 1024 1024">
  <defs>
    <style>
      .cls-1 {
        fill: #f7e5d5;
      }
    </style>
  </defs>
  <polygon class="cls-1" points="285.39 373.45 643.75 374.92 641.35 528 283 526.53 285.39 373.45"/>
  <path class="cls-1" d="m277.23,369.91l374.78,1.54-2.5,160.09-374.78-1.54,2.5-160.09m-8.55-3.71l-2.62,167.44,391.99,1.61,2.62-167.44-391.99-1.61h0Z"/>
  <path class="cls-1" d="m642.04,528.3c-.14.06-.32.09-.51.09l-358.74-1.47c-.4,0-.71-.14-.71-.31l2.4-153.24c0-.16.34-.31.72-.3l358.74,1.47c.4,0,.71.14.71.31l-2.4,153.24c0,.08-.08.16-.21.22Zm-358.52-1.99l357.3,1.47,2.39-152.63-357.3-1.46-2.39,152.63Z"/>
</svg>